<svg width="240" height="34" viewBox="0 0 240 34" fill="none" xmlns="http://www.w3.org/2000/svg">
<path d="M0 15.6314H24.414V19.7734H6.76251V22.1829H23.4334V26.0287H6.76251V29.2409H24.6169V33.383H0V15.6314Z" fill="white"/>
<path d="M37.0389 20.2384V28.7761H49.1803C50.616 28.7761 51.5878 28.5462 52.0957 28.0856C52.3425 27.8699 52.544 27.5609 52.6982 27.1592C52.8531 26.7582 52.9308 26.2787 52.9308 25.7194V24.2642C52.9308 23.7942 52.9126 23.3756 52.8754 23.0084C52.8382 22.6412 52.7705 22.2807 52.6711 21.9277C52.3993 20.8011 51.226 20.2384 49.1519 20.2384H37.0389ZM50.942 15.6318C51.3734 15.6318 51.7927 15.6352 52.1998 15.6433C52.6062 15.6514 52.9957 15.667 53.3657 15.6906C53.7477 15.6906 54.121 15.7278 54.4848 15.8015C54.8487 15.8759 55.2159 15.9814 55.5865 16.1201C56.4737 16.4163 57.1648 16.8112 57.6578 17.3035C58.6573 18.3287 59.2612 19.5913 59.4715 21.0905C59.5452 21.7505 59.6007 22.3794 59.6379 22.9766C59.6751 23.5737 59.6933 24.3142 59.6933 25.2021C59.6933 26.771 59.6196 27.8807 59.4715 28.5306C59.2118 29.8026 58.6878 30.8231 57.8986 31.5934C57.1094 32.3623 55.9253 32.885 54.3469 33.1609C53.5083 33.309 52.1322 33.3827 50.2204 33.3827H30.2764V15.6318H50.942Z" fill="white"/>
<path d="M65.3183 15.6314H72.0808V26.6982C72.0808 27.3894 72.3526 27.9283 72.897 28.3179C73.4414 28.7074 74.2394 28.9028 75.2923 28.9028C75.7251 28.9028 76.3804 28.9238 77.2595 28.9664C78.1379 29.0083 78.7939 29.0293 79.2267 29.0293C81.3062 29.0293 82.8027 28.9846 83.719 28.896C84.6347 28.8075 85.34 28.5829 85.835 28.2225C86.33 27.8621 86.5776 27.3562 86.5776 26.705L86.6202 25.343V15.6314H93.3827V27.2663L93.2772 28.0947C93.2772 28.8541 93.1379 29.529 92.8606 30.1194C92.5827 30.7111 92.204 31.2284 91.7232 31.6727C90.8717 32.441 89.4902 32.988 87.5791 33.3126L86.5803 33.4607C85.5436 33.5493 82.8426 33.594 78.4767 33.594L73.7038 33.552C69.8316 33.552 67.4261 32.6594 66.4895 30.8734C66.1311 30.2418 65.8532 29.5987 65.6564 28.9427C65.4589 28.2861 65.3602 27.5936 65.3602 26.8632L65.3183 25.4276V15.6314Z" fill="white"/>
<path d="M106.574 20.2384V24.5069H117.231C118.183 24.5069 118.807 24.2986 119.104 23.88C119.4 23.4628 119.549 22.9103 119.549 22.2239C119.549 21.5869 119.386 21.0973 119.058 20.7537C118.73 20.4102 118.244 20.2384 117.603 20.2384H106.574ZM118.743 15.6318C119.311 15.6318 119.853 15.6595 120.371 15.7136C120.888 15.7677 121.431 15.8496 121.999 15.9578C124.047 16.3432 125.331 17.3698 125.848 19.0394C126.158 20.0166 126.312 21.0641 126.312 22.1799C126.312 25.3908 125.41 27.4358 123.608 28.3135C122.904 28.6693 122.016 28.9019 120.942 29.0101C120.583 29.0405 120.228 29.0642 119.877 29.0838C119.526 29.1034 119.164 29.1142 118.794 29.1142H106.574V33.3827H99.811V15.6318H118.743Z" fill="white"/>
<path d="M138.424 15.6314V28.7757H153.293V33.383H131.661V15.6314H138.424Z" fill="white"/>
<path d="M157.656 15.6314H182.07V19.7734H164.418V22.1829H181.089V26.0287H164.418V29.2409H182.273V33.383H157.656V15.6314Z" fill="white"/>
<path d="M196.695 24.4384L186.266 15.6316H195.234L202.26 21.8869L209.325 15.6316H218.181L207.827 24.4398L218.885 33.3832H209.602L202.26 26.9162L194.846 33.3832H185.692L196.695 24.4384Z" fill="white"/>
<path d="M224.441 11.7959H232.781V20.1354H224.441V11.7959Z" fill="white"/>
<path d="M235.83 0.406498L240 7.62886L232.778 11.7986L228.608 4.57626L235.83 0.406498Z" fill="white"/>
<path d="M217.221 7.62861L221.391 0.40625L228.614 4.57601L224.444 11.7984L217.221 7.62861Z" fill="white"/>
</svg>
